<?xml version="1.0" encoding="utf-8"?>
<!-- Generator: Adobe Illustrator 22.0.1, SVG Export Plug-In . SVG Version: 6.00 Build 0)  -->
<svg version="1.1" id="Layer_1" xmlns="http://www.w3.org/2000/svg" xmlns:xlink="http://www.w3.org/1999/xlink" x="0px" y="0px"
	 viewBox="0 0 100 125" style="enable-background:new 0 0 100 125;" xml:space="preserve">
<g>
	<g>
		<path d="M66,89.3H4.3c-1,0-1.8-0.8-1.8-1.8v-75c0-1,0.8-1.8,1.8-1.8H66c1,0,1.8,0.8,1.8,1.8V50c0,1-0.8,1.8-1.8,1.8
			S64.2,51,64.2,50V14.4h-58v71.3h58V80c0-1,0.8-1.8,1.8-1.8s1.8,0.8,1.8,1.8v7.5C67.8,88.5,67,89.3,66,89.3z"/>
	</g>
	<g>
		<path d="M59.2,74.8c-0.5,0-0.9-0.2-1.3-0.5c-0.6-0.6-0.7-1.4-0.4-2.1l4-7.7c0.1-0.2,0.2-0.3,0.3-0.5l28.9-29.3
			c0.7-0.7,1.8-0.7,2.6,0l3.6,3.5c0.4,0.3,0.6,0.8,0.6,1.3s-0.2,1-0.5,1.3L68,70.1c-0.1,0.1-0.3,0.2-0.4,0.3L60,74.6
			C59.8,74.8,59.5,74.8,59.2,74.8z M64.6,66.4l-1.1,2.1l2.1-1.2L93,39.5l-1-1L64.6,66.4z"/>
	</g>
	<g>
		<path d="M57.1,30.9H13.2c-0.8,0-1.4-0.6-1.4-1.4v-7.3c0-0.8,0.6-1.4,1.4-1.4h43.9c0.8,0,1.4,0.6,1.4,1.4v7.3
			C58.5,30.3,57.9,30.9,57.1,30.9z M14.6,28.2h41.1v-4.6H14.6V28.2z"/>
	</g>
	<g>
		<path d="M57.1,47.2H13.2c-0.8,0-1.4-0.6-1.4-1.4v-7.3c0-0.8,0.6-1.4,1.4-1.4h43.9c0.8,0,1.4,0.6,1.4,1.4v7.3
			C58.5,46.6,57.9,47.2,57.1,47.2z M14.6,44.5h41.1v-4.6H14.6V44.5z"/>
	</g>
	<g>
		<path d="M57.2,63.5H13.3c-0.8,0-1.4-0.6-1.4-1.4v-7.3c0-0.8,0.6-1.4,1.4-1.4h43.9c0.8,0,1.4,0.6,1.4,1.4v7.3
			C58.6,62.9,57.9,63.5,57.2,63.5z M14.7,60.8h41.1v-4.6H14.7V60.8z"/>
	</g>
	<g>
		<path d="M22.7,80.3h-8.2c-0.8,0-1.4-0.6-1.4-1.4v-8.2c0-0.8,0.6-1.4,1.4-1.4h8.2c0.8,0,1.4,0.6,1.4,1.4v8.2
			C24,79.7,23.4,80.3,22.7,80.3z M15.8,77.6h5.5v-5.5h-5.5C15.8,72.1,15.8,77.6,15.8,77.6z"/>
	</g>
	<g>
		<path d="M38.8,80.3h-8.2c-0.8,0-1.4-0.6-1.4-1.4v-8.2c0-0.8,0.6-1.4,1.4-1.4h8.2c0.8,0,1.4,0.6,1.4,1.4v8.2
			C40.2,79.7,39.5,80.3,38.8,80.3z M31.9,77.6h5.5v-5.5h-5.5C31.9,72.1,31.9,77.6,31.9,77.6z"/>
	</g>
	<g>
		<path d="M54,80.3h-6.3c-0.8,0-1.4-0.6-1.4-1.4v-8.2c0-0.8,0.6-1.4,1.4-1.4h6.2c0.8,0,1.4,0.6,1.4,1.4s-0.6,1.4-1.4,1.4H49v5.5h5
			c0.8,0,1.4,0.6,1.4,1.4S54.7,80.3,54,80.3z"/>
	</g>
</g>
</svg>
