<?xml version="1.0" encoding="utf-8"?>
<!-- Generator: Adobe Illustrator 22.0.1, SVG Export Plug-In . SVG Version: 6.00 Build 0)  -->
<svg version="1.1" id="Layer_1" xmlns="http://www.w3.org/2000/svg" xmlns:xlink="http://www.w3.org/1999/xlink" x="0px" y="0px"
	 viewBox="0 0 60 75" style="enable-background:new 0 0 60 75;" xml:space="preserve">
<path d="M54,27.3h-1.6v-2.4c0-0.6-0.4-1-1-1H49v-3.3c0-0.6-0.4-1-1-1h-5.1c-0.6,0-1,0.4-1,1v6.7H18.1v-6.7c0-0.6-0.4-1-1-1H12
	c-0.6,0-1,0.4-1,1v3.3H8.6c-0.6,0-1,0.4-1,1v2.4H6c-0.6,0-1,0.4-1,1v3.4c0,0.6,0.4,1,1,1h1.6v2.4c0,0.6,0.4,1,1,1H11v3.3
	c0,0.6,0.4,1,1,1h5.1c0.6,0,1-0.4,1-1v-6.7h23.7v6.7c0,0.6,0.4,1,1,1H48c0.6,0,1-0.4,1-1v-3.3h2.4c0.6,0,1-0.4,1-1v-2.4H54
	c0.6,0,1-0.4,1-1v-3.4C55,27.7,54.6,27.3,54,27.3z M7,30.7v-1.4h0.6v1.4H7z M9.6,34.1v-2.4v-3.4v-2.4H11v8.3H9.6V34.1z M16.1,38.4
	H13v-3.3V24.9v-3.3h3.1v6.7v3.4V38.4z M18.1,30.7v-1.4h23.7v1.4H18.1z M47,38.4h-3.1v-6.7v-3.4v-6.7H47v3.3v10.3V38.4z M50.4,34.1
	H49v-8.3h1.4v2.4v3.4V34.1z M53,30.7h-0.6v-1.4H53V30.7z"/>
</svg>
